<svg xmlns="http://www.w3.org/2000/svg" width="213.4" height="131.464" viewBox="0 0 213.4 131.464">
  <g id="Groupe_15" data-name="Groupe 15" transform="translate(-588.464 -2137.96)">
    <path id="Tracé_45" data-name="Tracé 45" d="M1.464,0V-17.04H8.016a9.586,9.586,0,0,1,3.72.672,7.688,7.688,0,0,1,2.688,1.824,7.659,7.659,0,0,1,1.632,2.7,9.752,9.752,0,0,1,.552,3.3A9.622,9.622,0,0,1,16-5.028a7.612,7.612,0,0,1-1.74,2.688A7.8,7.8,0,0,1,11.544-.612,9.718,9.718,0,0,1,8.016,0ZM11.856-8.544a5.823,5.823,0,0,0-.264-1.8,4.019,4.019,0,0,0-.756-1.392,3.411,3.411,0,0,0-1.212-.9,3.875,3.875,0,0,0-1.608-.324H6.144v8.88H8.016a3.815,3.815,0,0,0,1.632-.336,3.41,3.41,0,0,0,1.212-.936A4.125,4.125,0,0,0,11.6-6.768,5.993,5.993,0,0,0,11.856-8.544Zm10.872-8.5H27L32.9,0H28.152L27.12-3.336H22.584L21.576,0H16.8ZM26.376-6.456l-1.512-5.28L23.28-6.456ZM36.408-17.04l3.048,7.368,3.12-7.368h5.088l-5.88,11.4V0H37.128V-5.688L31.344-17.04Z" transform="translate(587 2155)" fill="#ffabbd"/>
    <path id="Tracé_44" data-name="Tracé 44" d="M4.608-54.144q0-24.912,10.584-39.168t32.616-14.256q21.888,0,32.544,14.328t10.656,39.1q0,24.912-10.656,39.24T47.808-.576Q25.776-.576,15.192-14.9T4.608-54.144Zm54.864,0q0-11.52-2.3-17.352t-9.36-5.832q-7.2,0-9.5,5.832T36-54.144q0,11.664,2.3,17.5t9.5,5.832q7.056,0,9.36-5.832T59.472-54.144Zm46.944,28.656q19.3-14.4,30.528-26.136t11.232-21.96a8.286,8.286,0,0,0-1.512-5.328,4.846,4.846,0,0,0-3.96-1.872,5.042,5.042,0,0,0-4.536,2.952q-1.656,2.952-1.224,9h-30.96q.432-13.392,5.832-22.032a32.675,32.675,0,0,1,14.04-12.672,44.391,44.391,0,0,1,19.008-4.032q18.432,0,27,8.856t8.568,22.68q0,14.544-9.288,27.288a83.269,83.269,0,0,1-23.256,21.528h32.976V-1.44H106.416Z" transform="translate(621 2270)" fill="#ffabbd"/>
    <path id="Tracé_16" data-name="Tracé 16" d="M38.467-235.279l-1.878,33.95H15.208l-2.023-33.95Z" transform="translate(575.386 2403.448)" fill="#ffabbd"/>
  </g>
</svg>
