<svg xmlns="http://www.w3.org/2000/svg" width="216.424" height="133.048" viewBox="0 0 216.424 133.048">
  <g id="Groupe_16" data-name="Groupe 16" transform="translate(-1087.464 -2137.96)">
    <path id="Tracé_46" data-name="Tracé 46" d="M1.464,0V-17.04H8.016a9.586,9.586,0,0,1,3.72.672,7.688,7.688,0,0,1,2.688,1.824,7.659,7.659,0,0,1,1.632,2.7,9.752,9.752,0,0,1,.552,3.3A9.622,9.622,0,0,1,16-5.028a7.612,7.612,0,0,1-1.74,2.688A7.8,7.8,0,0,1,11.544-.612,9.718,9.718,0,0,1,8.016,0ZM11.856-8.544a5.823,5.823,0,0,0-.264-1.8,4.019,4.019,0,0,0-.756-1.392,3.411,3.411,0,0,0-1.212-.9,3.875,3.875,0,0,0-1.608-.324H6.144v8.88H8.016a3.815,3.815,0,0,0,1.632-.336,3.41,3.41,0,0,0,1.212-.936A4.125,4.125,0,0,0,11.6-6.768,5.993,5.993,0,0,0,11.856-8.544Zm10.872-8.5H27L32.9,0H28.152L27.12-3.336H22.584L21.576,0H16.8ZM26.376-6.456l-1.512-5.28L23.28-6.456ZM36.408-17.04l3.048,7.368,3.12-7.368h5.088l-5.88,11.4V0H37.128V-5.688L31.344-17.04Z" transform="translate(1086 2155)" fill="#ffabbd"/>
    <path id="Tracé_47" data-name="Tracé 47" d="M4.608-54.144q0-24.912,10.584-39.168t32.616-14.256q21.888,0,32.544,14.328t10.656,39.1q0,24.912-10.656,39.24T47.808-.576Q25.776-.576,15.192-14.9T4.608-54.144Zm54.864,0q0-11.52-2.3-17.352t-9.36-5.832q-7.2,0-9.5,5.832T36-54.144q0,11.664,2.3,17.5t9.5,5.832q7.056,0,9.36-5.832T59.472-54.144Zm49.68-18.144q.432-17.136,10.008-26.208t27.144-9.072q11.376,0,19.44,3.888a28.293,28.293,0,0,1,12.168,10.512,27.851,27.851,0,0,1,4.1,14.976q0,10.08-4.752,15.768a24.088,24.088,0,0,1-10.656,7.7v.576q17.28,6.48,17.28,24.048a30.531,30.531,0,0,1-4.32,16.272A28.814,28.814,0,0,1,167.256-2.88,42.87,42.87,0,0,1,148.32,1.008q-18.72,0-29.376-8.928T108-35.856h31.1q-.288,5.184,1.512,7.848t6.264,2.664a5.54,5.54,0,0,0,4.32-1.944,7.408,7.408,0,0,0,1.728-5.112,7.306,7.306,0,0,0-2.664-6.12q-2.664-2.088-9-2.088h-5.328V-66.384h5.184q9.792.576,9.792-7.776,0-3.6-1.512-5.328a4.853,4.853,0,0,0-3.816-1.728q-5.328,0-5.328,8.928Z" transform="translate(1120 2270)" fill="#ffabbd"/>
    <path id="Tracé_17" data-name="Tracé 17" d="M38.467-235.279l-1.878,33.95H15.208l-2.023-33.95Z" transform="translate(1074.386 2403.448)" fill="#ffabbd"/>
  </g>
</svg>
