<svg xmlns="http://www.w3.org/2000/svg" width="185.176" height="132.04" viewBox="0 0 185.176 132.04">
  <g id="Groupe_14" data-name="Groupe 14" transform="translate(-83.464 -2137.96)">
    <path id="Tracé_42" data-name="Tracé 42" d="M1.464,0V-17.04H8.016a9.586,9.586,0,0,1,3.72.672,7.688,7.688,0,0,1,2.688,1.824,7.659,7.659,0,0,1,1.632,2.7,9.752,9.752,0,0,1,.552,3.3A9.622,9.622,0,0,1,16-5.028a7.612,7.612,0,0,1-1.74,2.688A7.8,7.8,0,0,1,11.544-.612,9.718,9.718,0,0,1,8.016,0ZM11.856-8.544a5.823,5.823,0,0,0-.264-1.8,4.019,4.019,0,0,0-.756-1.392,3.411,3.411,0,0,0-1.212-.9,3.875,3.875,0,0,0-1.608-.324H6.144v8.88H8.016a3.815,3.815,0,0,0,1.632-.336,3.41,3.41,0,0,0,1.212-.936A4.125,4.125,0,0,0,11.6-6.768,5.993,5.993,0,0,0,11.856-8.544Zm10.872-8.5H27L32.9,0H28.152L27.12-3.336H22.584L21.576,0H16.8ZM26.376-6.456l-1.512-5.28L23.28-6.456ZM36.408-17.04l3.048,7.368,3.12-7.368h5.088l-5.88,11.4V0H37.128V-5.688L31.344-17.04Z" transform="translate(82 2155)" fill="#ffabbd"/>
    <path id="Tracé_43" data-name="Tracé 43" d="M4.608-54.144q0-24.912,10.584-39.168t32.616-14.256q21.888,0,32.544,14.328t10.656,39.1q0,24.912-10.656,39.24T47.808-.576Q25.776-.576,15.192-14.9T4.608-54.144Zm54.864,0q0-11.52-2.3-17.352t-9.36-5.832q-7.2,0-9.5,5.832T36-54.144q0,11.664,2.3,17.5t9.5,5.832q7.056,0,9.36-5.832T59.472-54.144Zm44.352-21.168v-29.952H152.64V0H119.088V-75.312Z" transform="translate(116 2270)" fill="#ffabbd"/>
    <path id="Tracé_15" data-name="Tracé 15" d="M38.467-235.279l-1.878,33.95H15.208l-2.023-33.95Z" transform="translate(70.385 2403.448)" fill="#ffabbd"/>
  </g>
</svg>
