<svg xmlns="http://www.w3.org/2000/svg" width="90.642" height="90.402" viewBox="0 0 90.642 90.402">
  <g id="Out_line" data-name="Out line" transform="translate(-16 -15.996)">
    <path id="Tracé_2" data-name="Tracé 2" d="M209.407,210.732l2.354-1.913-19.713-24.262h0a1.514,1.514,0,0,0-2.37.02L145.7,240.684l2.387,1.871L186,194.189l-5.646,15.055a1.516,1.516,0,0,0,.012,1.1l2.716,6.791-8.587,11.449a1.517,1.517,0,0,0-.207,1.442l4.549,12.131,2.84-1.065-4.258-11.353,8.6-11.466a1.516,1.516,0,0,0,.195-1.473l-2.814-7.036,7.963-21.235Z" transform="translate(-105.119 -136.157)" fill="#2d2d2e"/>
    <path id="Tracé_3" data-name="Tracé 3" d="M45.255,139.26l2.144-2.144-16.68-16.68,0,0a1.505,1.505,0,0,0-2.142,0L16.444,132.567l2.144,2.144,9.542-9.542v7.842l-5.621,5.621a1.516,1.516,0,0,0-.284,1.75l1.935,3.871H16v3.033H26.615a1.516,1.516,0,0,0,1.356-2.194L25.427,140l5.293-5.293a1.516,1.516,0,0,0,.444-1.072v-8.47Z" transform="translate(0 -84.282)" fill="#2d2d2e"/>
    <path id="Tracé_4" data-name="Tracé 4" d="M115.712,232.257v-4.549h4.549a1.516,1.516,0,0,0,1.471-1.148l1.516-6.066a1.516,1.516,0,0,0,.03-.582l-.873-6.111,7.4,7.4,2.144-2.144-10.615-10.615,0,0a1.508,1.508,0,0,0-2.142,0L96.444,231.185a1.516,1.516,0,0,0,1.072,2.589H114.2a1.516,1.516,0,0,0,1.516-1.516Zm-3.033-6.065v4.549h-11.5l18.012-18.012,1.045,7.318-1.157,4.629H114.2a1.516,1.516,0,0,0-1.516,1.516Z" transform="translate(-64.836 -155.605)" fill="#2d2d2e"/>
    <path id="Tracé_5" data-name="Tracé 5" d="M186.92,21.931l-2.115,12.687-6.79,2.716a1.516,1.516,0,0,0-.908,1.04l-1.275,5.1-8.118,1.353.5,2.991,9.1-1.516a1.516,1.516,0,0,0,1.222-1.128l1.328-5.313,6.862-2.745a1.516,1.516,0,0,0,.933-1.159l2.548-15.29L223,53.462l2.144-2.144L190.275,16.451h0l-.009-.009h0a1.513,1.513,0,0,0-2.144,0L162.343,42.219l2.144,2.144Z" transform="translate(-118.604 0)" fill="#2d2d2e"/>
  </g>
</svg>
