<svg xmlns="http://www.w3.org/2000/svg">
<symbol id="icon-close" viewBox="0 0 100 100"><path d="M90 14.4L85.4 10 50 45.6v-.1L14.3 10 10 14.4 45.5 50 10 85.5l4.4 4.5 35.5-35.6h.1L85.5 90l4.4-4.4L54.4 50 90 14.4z"/></symbol>
<symbol id="icon-dayone" viewBox="0 0 100 100"><g data-name="Groupe 14" fill="#ffabbd"><path data-name="Trac&#xE9; 42" d="M0 17.04V0h6.552a9.586 9.586 0 013.72.672 7.688 7.688 0 012.688 1.824 7.659 7.659 0 011.632 2.7 9.752 9.752 0 01.552 3.3 9.622 9.622 0 01-.608 3.516 7.612 7.612 0 01-1.74 2.688 7.8 7.8 0 01-2.716 1.728 9.718 9.718 0 01-3.528.612zm10.392-8.544a5.823 5.823 0 00-.264-1.8 4.019 4.019 0 00-.756-1.392 3.411 3.411 0 00-1.212-.9 3.875 3.875 0 00-1.608-.324H4.68v8.88h1.872a3.815 3.815 0 001.632-.336 3.41 3.41 0 001.212-.936 4.125 4.125 0 00.74-1.416 5.993 5.993 0 00.256-1.776zm10.872-8.5h4.272l5.9 17.044h-4.748l-1.032-3.336H21.12l-1.008 3.336h-4.776zm3.648 10.588L23.4 5.304l-1.584 5.28zM34.944 0l3.048 7.368L41.112 0H46.2l-5.88 11.4v5.64h-4.656v-5.688L29.88 0z"/><path data-name="Trac&#xE9; 43" d="M37.144 77.896q0-24.912 10.584-39.168t32.616-14.256q21.888 0 32.544 14.328t10.656 39.1q0 24.912-10.656 39.24t-32.544 14.324q-22.032 0-32.616-14.324T37.144 77.896zm54.864 0q0-11.52-2.3-17.352t-9.36-5.832q-7.2 0-9.5 5.832t-2.312 17.352q0 11.664 2.3 17.5t9.5 5.832q7.056 0 9.36-5.832t2.312-17.5zm44.352-21.168V26.776h48.816V132.04h-33.552V56.728z"/><path data-name="Trac&#xE9; 15" d="M25.388 30.209l-1.878 33.95H2.129L.106 30.209z"/></g></symbol>
<symbol id="icon-daythree" viewBox="0 0 100 100"><g data-name="Groupe 16" fill="#ffabbd"><path data-name="Trac&#xE9; 46" d="M0 17.04V0h6.552a9.586 9.586 0 013.72.672 7.688 7.688 0 012.688 1.824 7.659 7.659 0 011.632 2.7 9.752 9.752 0 01.552 3.3 9.622 9.622 0 01-.608 3.516 7.612 7.612 0 01-1.74 2.688 7.8 7.8 0 01-2.716 1.728 9.718 9.718 0 01-3.528.612zm10.392-8.544a5.823 5.823 0 00-.264-1.8 4.019 4.019 0 00-.756-1.392 3.411 3.411 0 00-1.212-.9 3.875 3.875 0 00-1.608-.324H4.68v8.88h1.872a3.815 3.815 0 001.632-.336 3.41 3.41 0 001.212-.936 4.125 4.125 0 00.74-1.416 5.993 5.993 0 00.256-1.776zm10.872-8.5h4.272l5.9 17.044h-4.748l-1.032-3.336H21.12l-1.008 3.336h-4.776zm3.648 10.588L23.4 5.304l-1.584 5.28zM34.944 0l3.048 7.368L41.112 0H46.2l-5.88 11.4v5.64h-4.656v-5.688L29.88 0z"/><path data-name="Trac&#xE9; 47" d="M37.144 77.896q0-24.912 10.584-39.168t32.616-14.256q21.888 0 32.544 14.328t10.656 39.1q0 24.912-10.656 39.24t-32.544 14.324q-22.032 0-32.616-14.324T37.144 77.896zm54.864 0q0-11.52-2.3-17.352t-9.36-5.832q-7.2 0-9.5 5.832t-2.312 17.352q0 11.664 2.3 17.5t9.5 5.832q7.056 0 9.36-5.832t2.312-17.5zm49.68-18.144q.432-17.136 10.008-26.208t27.144-9.072q11.376 0 19.44 3.888a28.293 28.293 0 0112.168 10.512 27.851 27.851 0 014.1 14.976q0 10.08-4.752 15.768a24.088 24.088 0 01-10.656 7.7v.576q17.28 6.48 17.28 24.048a30.531 30.531 0 01-4.32 16.272 28.814 28.814 0 01-12.308 10.948 42.87 42.87 0 01-18.936 3.888q-18.72 0-29.376-8.928t-10.944-27.936h31.1q-.288 5.184 1.512 7.848t6.264 2.664a5.54 5.54 0 004.32-1.944 7.408 7.408 0 001.728-5.112 7.306 7.306 0 00-2.664-6.12q-2.664-2.088-9-2.088h-5.328V65.656h5.184q9.792.576 9.792-7.776 0-3.6-1.512-5.328a4.853 4.853 0 00-3.816-1.728q-5.328 0-5.328 8.928z"/><path data-name="Trac&#xE9; 17" d="M25.389 30.209l-1.878 33.95H2.13L.107 30.209z"/></g></symbol>
<symbol id="icon-daytwo" viewBox="0 0 100 100"><g data-name="Groupe 15" fill="#ffabbd"><path data-name="Trac&#xE9; 45" d="M0 17.04V0h6.552a9.586 9.586 0 013.72.672 7.688 7.688 0 012.688 1.824 7.659 7.659 0 011.632 2.7 9.752 9.752 0 01.552 3.3 9.622 9.622 0 01-.608 3.516 7.612 7.612 0 01-1.74 2.688 7.8 7.8 0 01-2.716 1.728 9.718 9.718 0 01-3.528.612zm10.392-8.544a5.823 5.823 0 00-.264-1.8 4.019 4.019 0 00-.756-1.392 3.411 3.411 0 00-1.212-.9 3.875 3.875 0 00-1.608-.324H4.68v8.88h1.872a3.815 3.815 0 001.632-.336 3.41 3.41 0 001.212-.936 4.125 4.125 0 00.74-1.416 5.993 5.993 0 00.256-1.776zm10.872-8.5h4.272l5.9 17.044h-4.748l-1.032-3.336H21.12l-1.008 3.336h-4.776zm3.648 10.588L23.4 5.304l-1.584 5.28zM34.944 0l3.048 7.368L41.112 0H46.2l-5.88 11.4v5.64h-4.656v-5.688L29.88 0z"/><path data-name="Trac&#xE9; 44" d="M37.144 77.896q0-24.912 10.584-39.168t32.616-14.256q21.888 0 32.544 14.328t10.656 39.1q0 24.912-10.656 39.24t-32.544 14.324q-22.032 0-32.616-14.324T37.144 77.896zm54.864 0q0-11.52-2.3-17.352t-9.36-5.832q-7.2 0-9.5 5.832t-2.312 17.352q0 11.664 2.3 17.5t9.5 5.832q7.056 0 9.36-5.832t2.312-17.5zm46.944 28.656q19.3-14.4 30.528-26.136t11.232-21.96a8.286 8.286 0 00-1.512-5.328 4.846 4.846 0 00-3.96-1.872 5.042 5.042 0 00-4.536 2.952q-1.656 2.952-1.224 9h-30.96q.432-13.392 5.832-22.032a32.675 32.675 0 0114.04-12.672 44.391 44.391 0 0119.008-4.032q18.432 0 27 8.856t8.568 22.68q0 14.544-9.288 27.288a83.269 83.269 0 01-23.256 21.528H213.4V130.6h-74.448z"/><path data-name="Trac&#xE9; 16" d="M25.389 30.209l-1.878 33.95H2.13L.107 30.209z"/></g></symbol>
<symbol id="icon-moutainicon" viewBox="0 0 100 100"><g data-name="Out line" fill="#2d2d2e"><path data-name="Trac&#xE9; 2" d="M88.288 58.579l2.354-1.913-19.713-24.262a1.514 1.514 0 00-2.37.02L24.581 88.531l2.387 1.871 37.913-48.366-5.646 15.055a1.516 1.516 0 00.012 1.1l2.716 6.791-8.587 11.449a1.517 1.517 0 00-.207 1.442l4.549 12.131 2.84-1.065L56.3 77.586l8.6-11.466a1.516 1.516 0 00.195-1.473l-2.814-7.036 7.963-21.235z"/><path data-name="Trac&#xE9; 3" d="M29.255 38.982l2.144-2.144-16.68-16.68a1.505 1.505 0 00-2.142 0L.444 32.289l2.144 2.144 9.542-9.542v7.842l-5.621 5.621a1.516 1.516 0 00-.284 1.75l1.935 3.871H0v3.033h10.615a1.516 1.516 0 001.356-2.194l-2.544-5.092 5.293-5.293a1.516 1.516 0 00.444-1.072v-8.47z"/><path data-name="Trac&#xE9; 4" d="M34.876 60.656v-4.549h4.549a1.516 1.516 0 001.471-1.148l1.516-6.066a1.516 1.516 0 00.03-.582l-.873-6.111 7.4 7.4 2.144-2.144-10.615-10.615a1.508 1.508 0 00-2.142 0L15.608 59.584a1.516 1.516 0 001.072 2.589h16.684a1.516 1.516 0 001.516-1.516zm-3.033-6.065v4.549h-11.5l18.012-18.012 1.045 7.318-1.157 4.629h-4.879a1.516 1.516 0 00-1.516 1.516z"/><path data-name="Trac&#xE9; 5" d="M52.316 5.935l-2.115 12.687-6.79 2.716a1.516 1.516 0 00-.908 1.04l-1.275 5.1-8.118 1.353.5 2.991 9.1-1.516a1.516 1.516 0 001.222-1.128l1.328-5.313 6.862-2.745a1.516 1.516 0 00.933-1.159l2.548-15.29 32.793 32.795 2.144-2.144L55.671.455l-.009-.009a1.513 1.513 0 00-2.144 0L27.739 26.223l2.144 2.144z"/></g></symbol>
<symbol id="icon-search" viewBox="0 0 100 100"><path d="M71.2 66.9l18.7 18.6-4.4 4.4-18.6-18.7a34.8 34.8 0 114.3-4.3zm-26.7 6.4a28.8 28.8 0 100-57.6 28.8 28.8 0 000 57.6z"/></symbol>
<symbol id="icon-wildicon" viewBox="0 0 100 100"><g fill="#2d2d2e"><path data-name="Trac&#xE9; 9" d="M88.935 3.622a1.671 1.671 0 00-2.317.463l-1.283 1.926a16.8 16.8 0 01-2.893 3.3 20.623 20.623 0 00.554-4.738V1.671a1.671 1.671 0 00-3.342 0v2.905a17.273 17.273 0 01-4.276 11.378l-4.077 4.658a12.048 12.048 0 012.028-6.444l1.03-1.545a1.671 1.671 0 10-2.78-1.854l-1.03 1.545a15.384 15.384 0 00-2.592 8.56v2.517h-3.342v-2.517a15.384 15.384 0 00-2.592-8.56l-1.03-1.545a1.671 1.671 0 10-2.78 1.854l1.03 1.545a12.048 12.048 0 012.028 6.444l-4.07-4.659a17.272 17.272 0 01-4.275-11.377V1.671a1.671 1.671 0 00-3.342 0v2.905a20.614 20.614 0 00.554 4.738 16.8 16.8 0 01-2.894-3.3L45.96 4.088a1.671 1.671 0 10-2.78 1.854l1.284 1.926a20.116 20.116 0 005.608 5.608l1.926 1.284a1.665 1.665 0 00.385.188 20.61 20.61 0 002.3 3.21l3.486 3.983a6.675 6.675 0 00-2.309-.418h-4.609a1.671 1.671 0 00-1.494 2.418l1.956 3.911a6.643 6.643 0 005.977 3.7h.244v4.177l-4.455 3.342a4.144 4.144 0 01-2.506.835h-5.906a15.032 15.032 0 00-4.756.771l-1.218.407a9.613 9.613 0 01-3.038.493H22.071a15.819 15.819 0 00-11.03 4.443l-5.558 2.527a9.351 9.351 0 00-4.15 13.324l3.375 5.626a1.671 1.671 0 002.614.322c.194-.194.383-.393.57-.594a15.918 15.918 0 001.739 2.69l.2.256-4.3 7.522a7.07 7.07 0 00-.907 4.165L6.14 98.734a1.671 1.671 0 001.664 1.519h5.012a1.671 1.671 0 001.671-1.671V87.224l.046-.107a5.022 5.022 0 00.275.856l4.826 11.261a1.671 1.671 0 001.536 1.012h5.012a1.671 1.671 0 001.671-1.671v-3.342a1.673 1.673 0 00-.064-.459L24.519 83.3v-5.752l3.671-3.671 3.049 1.523a13.88 13.88 0 006.162 1.456h5.75l1.415 8.492v13.228a1.671 1.671 0 001.671 1.671h13.364a1.671 1.671 0 001.671-1.671V81.961L62.928 67.1a37.56 37.56 0 003.653-3.206l2.68-2.68a18.259 18.259 0 005.382-13V31.745h.244a6.643 6.643 0 005.976-3.695l1.957-3.912a1.671 1.671 0 00-1.494-2.418h-4.607a6.679 6.679 0 00-2.309.418l3.485-3.983a20.61 20.61 0 002.3-3.21 1.665 1.665 0 00.385-.188l1.926-1.284a20.113 20.113 0 005.608-5.608l1.287-1.926a1.671 1.671 0 00-.463-2.317zm-27.659 32.74V30.58l1.383-2.075v-.006l1.177-1.766h4.895l1.177 1.766v.006l1.393 2.075v5.783l-2.7 5.407h-4.618zm-6.575-9.807l-.747-1.493h1.9a3.364 3.364 0 012.363.979l1.239 1.239-.745 1.12H57.69a3.321 3.321 0 01-2.989-1.845zm-50.5 33.789a6.01 6.01 0 012.668-8.563l.512-.233-.024.055a15.856 15.856 0 00-1.214 6.1v2.458a15.913 15.913 0 00.428 3.658c-.054.07-.107.141-.162.21zm7.09 25.878a1.671 1.671 0 00-.135.658v10.025H9.337L7.958 81.749a3.744 3.744 0 01.48-2.206l3.641-6.373.815 1.019.8 6.414zm46.656-4.539a1.655 1.655 0 00-.01.185v15.037h-3.344v-11.7a1.673 1.673 0 00-.013-.207l-1.525-12.189 3.752-1.877q1.27-.635 2.483-1.361zm8.954-22.836l-2.679 2.679a34.237 34.237 0 01-3.866 3.327l-.052.038a34.241 34.241 0 01-4.986 3.051l-4.817 2.406a1.671 1.671 0 00-.91 1.7l1.658 13.264v11.591H47.91v-11.7a1.68 1.68 0 00-.023-.275L46.216 74.91a1.671 1.671 0 00-1.648-1.4h-7.167a10.52 10.52 0 01-4.67-1.1l-3.849-1.926a4 4 0 01-1.023-2.677V65.16a1.671 1.671 0 00-3.342 0v2.65a7.325 7.325 0 001.114 3.9l-3.966 3.966a1.671 1.671 0 00-.489 1.181v6.683a1.673 1.673 0 00.064.459l3.277 11.47v1.437h-2.24l-4.392-10.247a1.7 1.7 0 01-.122-.452l-.691-5.528v-.025l-.919-7.347a1.671 1.671 0 00-.353-.836l-3.558-4.448a12.593 12.593 0 01-2.758-7.863V57.7A12.59 12.59 0 0122.07 45.111h13.986a12.943 12.943 0 004.093-.664l1.219-.407a11.7 11.7 0 013.7-.6h5.906a7.564 7.564 0 004.511-1.5l3.521-2.641 2.446 4.892a1.671 1.671 0 001.495.924h6.683a1.671 1.671 0 001.494-.923l.176-.353v4.38a14.938 14.938 0 01-4.4 10.633zm11.72-33.785l-.748 1.495a3.321 3.321 0 01-2.987 1.847h-1.021l-.749-1.124 1.239-1.239a3.364 3.364 0 012.363-.979z"/><path data-name="Trac&#xE9; 10" d="M49.581 46.782H47.91a1.671 1.671 0 000 3.342h1.671a1.671 1.671 0 000-3.342z"/><path data-name="Trac&#xE9; 11" d="M54.593 51.794h-1.671a1.671 1.671 0 000 3.342h1.671a1.671 1.671 0 000-3.342z"/><path data-name="Trac&#xE9; 12" d="M46.239 53.465h-1.671a1.671 1.671 0 000 3.342h1.671a1.671 1.671 0 000-3.342z"/><path data-name="Trac&#xE9; 13" d="M36.215 53.465h-1.671a1.671 1.671 0 000 3.342h1.671a1.671 1.671 0 000-3.342z"/><path data-name="Trac&#xE9; 14" d="M41.227 48.453h-1.671a1.671 1.671 0 000 3.342h1.671a1.671 1.671 0 000-3.342z"/></g></symbol>
</svg>